<?xml version="1.0" standalone="no"?>
<!DOCTYPE svg PUBLIC "-//W3C//DTD SVG 20010904//EN"
 "http://www.w3.org/TR/2001/REC-SVG-20010904/DTD/svg10.dtd">
<svg version="1.0" xmlns="http://www.w3.org/2000/svg"
 width="480.000000pt" height="480.000000pt" viewBox="0 0 480.000000 480.000000"
 preserveAspectRatio="xMidYMid meet">

<g transform="translate(0.000000,480.000000) scale(0.100000,-0.100000)"
fill="#000000" stroke="none">
<path d="M363 4183 l-73 -4 0 -64 0 -63 124 -4 c137 -3 158 -11 203 -77 41
-61 45 -105 53 -626 7 -536 10 -571 66 -763 49 -169 116 -303 214 -426 121
-152 305 -245 653 -331 113 -28 472 -95 508 -95 5 0 9 -136 9 -332 0 -359 -6
-412 -54 -506 -67 -130 -129 -156 -418 -178 l-78 -6 0 -49 0 -49 830 0 830 0
0 49 0 49 -77 6 c-287 22 -353 50 -419 178 -48 94 -54 147 -54 506 0 182 2
332 5 332 3 0 51 7 108 15 432 65 760 167 934 291 139 99 268 308 337 547 55
191 59 227 66 762 8 521 12 565 53 626 45 66 66 74 203 77 l124 4 0 63 0 63
-147 7 c-294 13 -500 -38 -600 -148 -76 -85 -137 -268 -168 -512 -9 -70 -19
-277 -25 -500 -16 -629 -47 -764 -208 -917 -72 -69 -161 -118 -282 -158 -99
-32 -293 -70 -361 -70 l-39 0 0 943 c0 818 2 951 15 1002 39 149 127 200 368
212 l117 6 0 73 0 74 -780 0 -780 0 0 -75 0 -75 83 0 c107 -1 228 -23 285 -52
24 -13 57 -41 73 -63 60 -84 59 -68 59 -1102 l0 -943 -39 0 c-68 0 -270 39
-365 71 -128 42 -226 101 -301 180 -71 76 -106 141 -134 251 -31 120 -41 244
-51 643 -5 221 -15 420 -25 495 -31 250 -91 431 -170 519 -48 53 -156 105
-260 126 -82 17 -283 26 -412 18z"/>
</g>
</svg>
